<?xml version="1.0" encoding="UTF-8" standalone="no"?>
<svg
   version="1.1"
   width="84.851562"
   height="84.851562"
   id="svg2"
   xmlns="http://www.w3.org/2000/svg"
   xmlns:svg="http://www.w3.org/2000/svg">
  <defs
     id="defs2" />
  <path
     id="path1"
     style="fill:#fdf588;fill-opacity:1;stroke-width:0;stroke-dasharray:none"
     d="M 42.425781,5e-8 C 37.923374,0.00153925 0.00155905,37.921786 5e-8,42.425781 -0.00155765,46.929776 37.929698,84.855465 42.425781,84.851562 46.92186,84.847653 84.848278,46.927893 84.851562,42.425781 84.854834,37.923659 46.928188,-0.00153785 42.425781,5e-8 Z m 0,9.92578125 c 3.448991,-0.0011 32.502513,29.0512277 32.5,32.4999997 -0.0023,3.448768 -29.055855,32.49701 -32.5,32.5 -3.444143,0.003 -32.5011928,-29.049793 -32.4999997,-32.5 C 9.9270083,38.975573 38.976789,9.9269603 42.425781,9.9257813 Z m 0,7.4999997 c -0.905272,0 -1.776369,0.337793 -2.435547,0.945312 L 24.109375,33.013672 c -2.671872,2.456093 -4.183594,5.900262 -4.183594,9.501953 v 0.503906 c 0,6.066467 4.438478,11.238275 10.494141,12.236328 4.007803,0.65959 6.140632,-0.633611 9.005859,-3.46289 0,0 0.454456,19.032982 -3,19.032812 -3.454456,-1.69e-4 6,6.6 6,6.6 0,0 9.349401,-6.600784 6,-6.6 -3.349401,7.84e-4 -3,-19.032812 -3,-19.032812 2.865236,2.829279 4.998051,4.12248 9.005859,3.46289 6.055657,-0.998053 10.494141,-6.169861 10.494141,-12.236328 v -0.503906 c 0,-3.601691 -1.51172,-7.04586 -4.183594,-9.501953 L 44.861328,18.371093 c -0.659177,-0.607519 -1.530273,-0.945312 -2.435547,-0.945312 z" />
</svg>
