<?xml version="1.0" encoding="UTF-8" standalone="no"?>
<svg
   version="1.1"
   width="84.851562"
   height="84.851562"
   id="svg2"
   xmlns="http://www.w3.org/2000/svg"
   xmlns:svg="http://www.w3.org/2000/svg">
  <defs
     id="defs2" />
  <path
     id="path1"
     style="fill:#e24b83;fill-opacity:1;stroke-width:0;stroke-dasharray:none"
     d="M 42.425781,5e-8 C 37.923369,0.00153935 0.00155915,37.921781 5e-8,42.425781 -0.00155765,46.929781 37.929694,84.855465 42.425781,84.851562 46.921864,84.847653 84.848278,46.927898 84.851562,42.425781 84.854834,37.923654 46.928193,-0.00153785 42.425781,5e-8 Z m 0,9.92578125 c 3.448994,-0.0011 32.502513,29.0512247 32.5,32.4999997 -0.0023,3.448771 -29.055852,32.49701 -32.5,32.5 -3.444146,0.003 -32.5011928,-29.04979 -32.4999997,-32.5 C 9.9270083,38.97557 38.976786,9.9269603 42.425781,9.9257813 Z m 0.0039,11.2851557 c -1.201888,0 -2.379568,0.09794 -3.523437,0.296875 -0.762568,0.124329 -1.342034,0.722272 -1.507813,1.476563 l -1.03515,4.732422 c -1.309639,0.538778 -2.53774,1.251719 -3.648438,2.105468 l -4.617187,-1.466796 c -0.72942,-0.23209 -1.540257,-0.0343 -2.029297,0.5625 -0.671398,0.812309 -1.284962,1.676122 -1.832031,2.58789 l -0.390625,0.669922 c -0.505621,0.911768 -0.943884,1.857371 -1.308594,2.84375 -0.26525,0.721129 -0.04263,1.525154 0.529297,2.039062 l 3.589844,3.265626 c -0.09121,0.687968 -0.140625,1.392629 -0.140625,2.105468 0,0.71284 0.04942,1.417012 0.140625,2.113282 l -3.589844,3.265624 c -0.571979,0.513909 -0.794547,1.317924 -0.529297,2.039063 0.36471,0.98637 0.802973,1.931982 1.308594,2.84375 l 0.390625,0.671875 c 0.547069,0.911779 1.160633,1.773638 1.832031,2.585938 0.48904,0.588548 1.299877,0.794588 2.029297,0.5625 l 4.609375,-1.47461 c 1.110698,0.85375 2.336846,1.566688 3.646484,2.105469 l 1.03711,4.732422 c 0.16578,0.754278 -0.963877,7.794356 -2.964844,7.150781 -2.000967,-0.643575 6.798112,8.4 8,8.4 1.201879,0 9.996999,-9.049258 8,-8.4 -2.016077,0.655461 -3.138436,-6.396503 -2.972656,-7.150781 l 1.035156,-4.732422 c 1.309639,-0.538781 2.537728,-1.251719 3.648438,-2.105469 l 4.617187,1.466797 c 0.729419,0.23209 1.540258,0.03429 2.029297,-0.5625 0.671399,-0.81231 1.284972,-1.676114 1.832031,-2.587891 l 0.390625,-0.669922 c 0.50562,-0.91177 0.943884,-1.857381 1.308594,-2.84375 0.26524,-0.72113 0.04263,-1.525152 -0.529297,-2.039062 l -3.589844,-3.265625 c 0.09121,-0.687979 0.140625,-1.392629 0.140625,-2.105469 0,-0.712839 -0.04942,-1.4175 -0.140625,-2.105468 l 3.589844,-3.265626 c 0.57188,-0.513908 0.794537,-1.317933 0.529297,-2.039062 l 0.0078,-0.0078 c -0.364709,-0.98638 -0.802976,-1.93198 -1.308593,-2.84375 l -0.390625,-0.671876 c -0.54706,-0.911771 -1.158679,-1.77363 -1.830078,-2.585937 -0.48904,-0.588539 -1.30183,-0.794591 -2.03125,-0.5625 l -4.617188,1.466797 c -1.110708,-0.853749 -2.336846,-1.566688 -3.646484,-2.105469 l -1.03711,-4.732422 c -0.165771,-0.754288 -0.745233,-1.35223 -1.507812,-1.476562 -1.143857,-0.1906 -2.321559,-0.289063 -3.523438,-0.289063 z m 0,14.587891 c 3.683504,-0.03039 6.68578,2.947233 6.68578,6.630859 0,3.683627 -3.002276,6.661245 -6.68578,6.63086 -3.683504,0.03039 -6.68578,-2.947233 -6.68578,-6.63086 0,-3.683626 3.002276,-6.661244 6.68578,-6.630859 z" />
</svg>
